HIERARCHY
ROOT joint_Root
{
	OFFSET 0.0 0.0 0.0
	CHANNELS 6 Xposition Yposition Zposition Zrotation Xrotation Yrotation 
	JOINT Hips
	{
		OFFSET 4.5925 91.4895 -427.239
		CHANNELS 6 Xposition Yposition Zposition Zrotation Xrotation Yrotation 
		JOINT Spine
		{
			OFFSET 15.7357 0.0 0.0
			CHANNELS 6 Xposition Yposition Zposition Zrotation Xrotation Yrotation 
			JOINT Chest
			{
				OFFSET 8.98455 -0.406207 0.0
				CHANNELS 6 Xposition Yposition Zposition Zrotation Xrotation Yrotation 
				JOINT Neck
				{
					OFFSET 16.3773 0.0 0.0
					CHANNELS 6 Xposition Yposition Zposition Zrotation Xrotation Yrotation 
					JOINT Head
					{
						OFFSET 6.45672 0.0 0.0
						CHANNELS 6 Xposition Yposition Zposition Zrotation Xrotation Yrotation 
						End Site
						{
							OFFSET 0.0 0.0 0.0
						}
					}
				}
				JOINT Shoulder_L
				{
					OFFSET 12.9942 -0.242716 4.98039
					CHANNELS 6 Xposition Yposition Zposition Zrotation Xrotation Yrotation 
					JOINT UpperArm_L
					{
						OFFSET 5.34809 0.0 0.0
						CHANNELS 6 Xposition Yposition Zposition Zrotation Xrotation Yrotation 
						JOINT LowerArm_L
						{
							OFFSET 24.3286 1.87007e-05 0.0
							CHANNELS 6 Xposition Yposition Zposition Zrotation Xrotation Yrotation 
							JOINT Hand_L
							{
								OFFSET 22.2916 0.0 0.0
								CHANNELS 6 Xposition Yposition Zposition Zrotation Xrotation Yrotation 
								End Site
								{
									OFFSET 0.0 0.0 0.0
								}
							}
						}
					}
				}
				JOINT Shoulder_R
				{
					OFFSET 12.9945 -0.242716 -4.98039
					CHANNELS 6 Xposition Yposition Zposition Zrotation Xrotation Yrotation 
					JOINT UpperArm_R
					{
						OFFSET -5.34813 0.0 0.0
						CHANNELS 6 Xposition Yposition Zposition Zrotation Xrotation Yrotation 
						JOINT LowerArm_R
						{
							OFFSET -24.3289 0.000322201 0.0
							CHANNELS 6 Xposition Yposition Zposition Zrotation Xrotation Yrotation 
							JOINT Hand_R
							{
								OFFSET -22.2915 -0.000108084 0.0
								CHANNELS 6 Xposition Yposition Zposition Zrotation Xrotation Yrotation 
								End Site
								{
									OFFSET 0.0 0.0 0.0
								}
							}
						}
					}
				}
			}
		}
		JOINT UpperLeg_L
		{
			OFFSET -2.19248 -6.46944 0.0
			CHANNELS 6 Xposition Yposition Zposition Zrotation Xrotation Yrotation 
			JOINT LowerLeg_L
			{
				OFFSET 39.0811 0.0 -1.23785e-05
				CHANNELS 6 Xposition Yposition Zposition Zrotation Xrotation Yrotation 
				JOINT Foot_L
				{
					OFFSET 40.9854 0.0 -1.26872e-05
					CHANNELS 6 Xposition Yposition Zposition Zrotation Xrotation Yrotation 
					JOINT Toes_L
					{
						OFFSET 11.7543 0.0 0.0
						CHANNELS 6 Xposition Yposition Zposition Zrotation Xrotation Yrotation 
						End Site
						{
							OFFSET 0.0 0.0 0.0
						}
					}
				}
			}
		}
		JOINT UpperLeg_R
		{
			OFFSET -2.19251 6.46944 0.0
			CHANNELS 6 Xposition Yposition Zposition Zrotation Xrotation Yrotation 
			JOINT LowerLeg_R
			{
				OFFSET -39.0811 -0.00228153 -0.0401928
				CHANNELS 6 Xposition Yposition Zposition Zrotation Xrotation Yrotation 
				JOINT Foot_R
				{
					OFFSET -40.9854 0.0 0.0
					CHANNELS 6 Xposition Yposition Zposition Zrotation Xrotation Yrotation 
					JOINT Toes_R
					{
						OFFSET -11.7543 0.0 0.0
						CHANNELS 6 Xposition Yposition Zposition Zrotation Xrotation Yrotation 
						End Site
						{
							OFFSET 0.0 0.0 0.0
						}
					}
				}
			}
		}
	}
}
MOTION
Frames:	5
Frame Time:	0.0333333
0.000000 0.000000 0.000000 0.000000 0.000000 -0.000000 -0.351128 91.428600 3.434660 89.493100 0.414232 4.039930 15.735700 0.000005 -0.000001 86.153300 88.247100 -87.082900 8.984550 -0.406207 -0.000000 -4.268590 -0.137428 -1.865360 16.377300 -0.000001 -0.000001 3.928310 -4.342300 2.492710 6.456720 -0.000001 -0.000000 1.536440 -5.268690 3.200370 12.994200 -0.242716 4.980390 -83.027800 -12.439800 -60.416000 5.348090 -0.000007 -0.000001 -48.299000 -56.876900 -82.674900 24.328600 0.000019 0.000005 7.524710 3.468730 -65.387600 22.291600 -0.000001 0.000005 25.176100 5.197400 2.787350 12.994500 -0.242716 -4.980390 94.296200 -10.568900 -67.727200 -5.348130 -0.000001 -0.000004 -60.193100 -57.462800 -89.574000 -24.328900 0.000322 -0.000009 -12.116000 -5.809570 -64.753000 -22.291500 -0.000108 -0.000004 30.529600 5.479010 -5.696770 -2.192480 -6.469440 -0.000000 -176.349000 -9.970410 -2.027430 39.081100 -0.000007 -0.000012 -0.150491 0.310861 25.832200 40.985400 -0.000006 -0.000013 0.315864 5.237690 -69.851200 11.754300 -0.000000 0.000003 -0.000312 -0.002690 -16.677600 -2.192510 6.469440 -0.000001 175.550000 21.889400 179.451000 -39.081100 -0.002282 -0.040193 0.011058 -0.016229 25.518400 -40.985400 0.000008 0.000006 6.850050 13.584900 -71.487100 -11.754300 -0.000006 -0.000006 -0.002670 -0.036809 -18.070000
0.000000 0.000000 0.000000 0.000000 0.000000 -0.000000 -0.273275 91.515400 3.302670 89.515700 0.309448 3.405700 15.735700 0.000005 -0.000001 90.543900 88.423600 -91.402600 8.984550 -0.406207 -0.000000 -4.611830 0.122612 -1.713620 16.377300 -0.000001 -0.000001 4.537360 -3.964740 2.326920 6.456720 -0.000001 -0.000000 1.475790 -5.257800 2.881530 12.994200 -0.242716 4.980390 -81.744800 -13.851000 -58.782400 5.348090 -0.000007 -0.000001 -54.157100 -58.607400 -93.183800 24.328600 0.000019 0.000005 13.439000 4.770000 -70.811900 22.291600 -0.000001 0.000005 28.932800 5.277290 0.700165 12.994500 -0.242716 -4.980390 95.124300 -12.069300 -66.786500 -5.348130 -0.000001 -0.000004 -53.586800 -61.205000 -90.568800 -24.328900 0.000322 -0.000009 -10.032900 -3.719560 -69.860700 -22.291500 -0.000108 -0.000004 37.415200 5.640090 -14.107800 -2.192480 -6.469440 -0.000000 -176.521000 -10.279500 -2.532620 39.081100 -0.000007 -0.000012 -0.144821 0.305247 25.381700 40.985400 -0.000006 -0.000013 0.387311 5.372600 -69.538000 11.754300 -0.000000 0.000003 -0.000337 -0.002866 -16.683900 -2.192510 6.469440 -0.000001 175.697000 22.189600 178.844000 -39.081100 -0.002282 -0.040193 0.009302 -0.012764 25.142900 -40.985400 0.000008 0.000006 6.740960 14.017500 -71.131700 -11.754300 -0.000006 -0.000006 -0.002572 -0.035658 -18.023100
0.000000 0.000000 0.000000 0.000000 0.000000 -0.000000 -0.269871 91.556700 3.380120 89.508600 0.420745 3.131700 15.735700 0.000005 -0.000001 93.515200 88.592500 -94.429700 8.984550 -0.406207 -0.000000 -4.953440 0.273864 -1.818540 16.377300 -0.000001 -0.000001 5.469250 -3.714780 2.501010 6.456720 -0.000001 -0.000000 1.554980 -4.767350 2.825740 12.994200 -0.242716 4.980390 -81.141500 -14.119100 -57.425200 5.348090 -0.000007 -0.000001 -58.583900 -57.470900 -99.791300 24.328600 0.000019 0.000005 12.504600 4.884070 -68.998000 22.291600 -0.000001 0.000005 29.636600 5.278540 0.666365 12.994500 -0.242716 -4.980390 95.473400 -12.263900 -65.719900 -5.348130 -0.000001 -0.000004 -47.622900 -62.184200 -87.032100 -24.328900 0.000322 -0.000009 -5.000620 -1.823060 -70.014100 -22.291500 -0.000108 -0.000004 40.941700 5.666100 -16.815200 -2.192480 -6.469440 -0.000000 -176.528000 -10.276100 -2.617520 39.081100 -0.000007 -0.000012 -0.143155 0.305972 25.073600 40.985400 -0.000006 -0.000013 0.392307 5.530420 -69.425300 11.754300 -0.000000 0.000003 -0.000313 -0.002694 -16.677800 -2.192510 6.469440 -0.000001 175.700000 22.673900 178.868000 -39.081100 -0.002282 -0.040193 0.007876 -0.009910 24.724400 -40.985400 0.000008 0.000006 6.738670 14.382900 -71.077700 -11.754300 -0.000006 -0.000006 -0.002800 -0.038321 -18.131500
0.000000 0.000000 0.000000 0.000000 0.000000 -0.000000 -0.279019 91.518300 3.513960 89.557200 0.818015 3.385750 15.735700 0.000005 -0.000001 88.474600 88.586100 -89.409600 8.984550 -0.406207 -0.000000 -4.938420 0.028395 -1.870250 16.377300 -0.000001 -0.000001 6.118380 -3.599430 2.319350 6.456720 -0.000001 -0.000000 1.957160 -4.456290 2.714200 12.994200 -0.242716 4.980390 -81.571900 -13.462500 -57.525600 5.348090 -0.000007 -0.000001 -58.290800 -55.744200 -97.407900 24.328600 0.000019 0.000005 7.992580 4.142800 -62.773000 22.291600 -0.000001 0.000005 25.939000 5.224660 2.093750 12.994500 -0.242716 -4.980390 95.144900 -11.435200 -65.575100 -5.348130 -0.000001 -0.000004 -44.628200 -60.322000 -81.797000 -24.328900 0.000322 -0.000009 -8.831730 -4.268250 -64.402500 -22.291500 -0.000108 -0.000004 36.616800 5.635530 -13.755000 -2.192480 -6.469440 -0.000000 -176.521000 -10.017700 -2.366240 39.081100 -0.000007 -0.000012 -0.143890 0.305733 25.203600 40.985400 -0.000006 -0.000013 0.415979 5.638910 -69.565700 11.754300 -0.000000 0.000003 -0.000279 -0.002445 -16.668900 -2.192510 6.469440 -0.000001 175.467000 22.922200 179.391000 -39.081100 -0.002282 -0.040193 0.006343 -0.006606 24.638000 -40.985400 0.000008 0.000006 6.668520 14.275900 -71.343700 -11.754300 -0.000006 -0.000006 -0.002875 -0.039176 -18.166300
0.000000 0.000000 0.000000 0.000000 0.000000 -0.000000 -0.257940 91.409700 3.562120 89.650100 0.996529 4.107530 15.735700 0.000005 -0.000001 83.623400 88.250200 -84.515900 8.984550 -0.406207 -0.000000 -4.289870 -0.294513 -1.797020 16.377300 -0.000001 -0.000001 5.792960 -3.649640 1.713240 6.456720 -0.000001 -0.000000 2.109500 -4.601590 2.671700 12.994200 -0.242716 4.980390 -82.763800 -12.122300 -58.841800 5.348090 -0.000007 -0.000001 -53.926700 -54.802000 -87.347500 24.328600 0.000019 0.000005 6.139150 4.286730 -55.203000 22.291600 -0.000001 0.000005 22.445600 5.146270 4.032360 12.994500 -0.242716 -4.980390 94.287100 -9.940130 -66.525700 -5.348130 -0.000001 -0.000004 -44.118500 -58.001300 -76.020600 -24.328900 0.000322 -0.000009 -11.900500 -8.370240 -55.362800 -22.291500 -0.000108 -0.000004 30.975900 5.533160 -7.933610 -2.192480 -6.469440 -0.000000 -176.467000 -10.048500 -1.883480 39.081100 -0.000007 -0.000012 -0.146200 0.302634 25.784900 40.985400 -0.000006 -0.000013 0.517121 5.869140 -69.904400 11.754300 -0.000000 0.000003 -0.000291 -0.002535 -16.672100 -2.192510 6.469440 -0.000001 175.033000 22.568200 179.957000 -39.081100 -0.002282 -0.040193 -0.020197 0.049969 25.194900 -40.985400 0.000008 0.000006 6.057740 13.951500 -71.525600 -11.754300 -0.000006 -0.000006 -0.002679 -0.036920 -18.074500
